{
  "accessors": [
    {
      "bufferView": 2,
      "componentType": 5126,
      "count": 124,
      "max": [
        1.0,
        1.2298192977905273,
        8.485355377197266
      ],
      "min": [
        -1.0,
        -1.0,
        -1.0
      ],
      "type": "VEC3"
    },
    {
      "bufferView": 2,
      "byteOffset": 1488,
      "componentType": 5126,
      "count": 124,
      "max": [
        0.9922348260879517,
        0.9939545392990112,
        0.9958049058914185
      ],
      "min": [
        -0.9735603332519531,
        -0.9174304008483887,
        -0.7958630323410034
      ],
      "type": "VEC3"
    },
    {
      "bufferView": 1,
      "componentType": 5126,
      "count": 124,
      "max": [
        1.0,
        1.0
      ],
      "min": [
        -1.564621925354004e-07,
        0.01000000536441803
      ],
      "type": "VEC2"
    },
    {
      "bufferView": 0,
      "componentType": 5125,
      "count": 468,
      "type": "SCALAR"
    },
    {
      "bufferView": 2,
      "byteOffset": 2976,
      "componentType": 5126,
      "count": 145,
      "max": [
        1.0,
        1.0,
        5.398562908172607
      ],
      "min": [
        -3.454975128173828,
        -1.0,
        -1.0
      ],
      "type": "VEC3"
    },
    {
      "bufferView": 2,
      "byteOffset": 4716,
      "componentType": 5126,
      "count": 145,
      "max": [
        0.9574508666992188,
        0.9993442893028259,
        0.9222238063812256
      ],
      "min": [
        -0.9522345662117004,
        -0.9993442893028259,
        -0.6735333800315857
      ],
      "type": "VEC3"
    },
    {
      "bufferView": 1,
      "byteOffset": 992,
      "componentType": 5126,
      "count": 145,
      "max": [
        1.0,
        1.0
      ],
      "min": [
        -1.564621925354004e-07,
        0.009615421295166016
      ],
      "type": "VEC2"
    },
    {
      "bufferView": 0,
      "byteOffset": 1872,
      "componentType": 5125,
      "count": 588,
      "type": "SCALAR"
    },
    {
      "bufferView": 2,
      "byteOffset": 6456,
      "componentType": 5126,
      "count": 145,
      "max": [
        1.0,
        1.0,
        5.398562908172607
      ],
      "min": [
        -3.454975128173828,
        -1.0,
        -1.0
      ],
      "type": "VEC3"
    },
    {
      "bufferView": 2,
      "byteOffset": 8196,
      "componentType": 5126,
      "count": 145,
      "max": [
        0.9574508666992188,
        0.9993442893028259,
        0.9222238063812256
      ],
      "min": [
        -0.9522345662117004,
        -0.9993442893028259,
        -0.6735333800315857
      ],
      "type": "VEC3"
    },
    {
      "bufferView": 1,
      "byteOffset": 2152,
      "componentType": 5126,
      "count": 145,
      "max": [
        1.0,
        1.0
      ],
      "min": [
        -1.564621925354004e-07,
        0.009615421295166016
      ],
      "type": "VEC2"
    },
    {
      "bufferView": 0,
      "byteOffset": 4224,
      "componentType": 5125,
      "count": 588,
      "type": "SCALAR"
    },
    {
      "bufferView": 2,
      "byteOffset": 9936,
      "componentType": 5126,
      "count": 145,
      "max": [
        1.0,
        1.0,
        5.398562908172607
      ],
      "min": [
        -3.454975128173828,
        -1.0,
        -1.0
      ],
      "type": "VEC3"
    },
    {
      "bufferView": 2,
      "byteOffset": 11676,
      "componentType": 5126,
      "count": 145,
      "max": [
        0.9574508666992188,
        0.9993442893028259,
        0.9222238063812256
      ],
      "min": [
        -0.9522345662117004,
        -0.9993442893028259,
        -0.6735333800315857
      ],
      "type": "VEC3"
    },
    {
      "bufferView": 1,
      "byteOffset": 3312,
      "componentType": 5126,
      "count": 145,
      "max": [
        1.0,
        1.0
      ],
      "min": [
        -1.564621925354004e-07,
        0.01000000536441803
      ],
      "type": "VEC2"
    },
    {
      "bufferView": 0,
      "byteOffset": 6576,
      "componentType": 5125,
      "count": 588,
      "type": "SCALAR"
    },
    {
      "bufferView": 2,
      "byteOffset": 13416,
      "componentType": 5126,
      "count": 31744,
      "max": [
        0.9872310161590576,
        0.9872310161590576,
        0.9975767135620117
      ],
      "min": [
        -0.9872305393218994,
        -0.9872307181358337,
        -0.9975767135620117
      ],
      "type": "VEC3"
    },
    {
      "bufferView": 2,
      "byteOffset": 394344,
      "componentType": 5126,
      "count": 31744,
      "max": [
        0.9993996024131775,
        0.999399721622467,
        0.9969544410705566
      ],
      "min": [
        -0.9993996024131775,
        -0.999399721622467,
        -0.9969545602798462
      ],
      "type": "VEC3"
    },
    {
      "bufferView": 1,
      "byteOffset": 4472,
      "componentType": 5126,
      "count": 31744,
      "max": [
        1.0000001192092896,
        1.0000001192092896
      ],
      "min": [
        0.0,
        0.0
      ],
      "type": "VEC2"
    },
    {
      "bufferView": 0,
      "byteOffset": 8928,
      "componentType": 5125,
      "count": 47616,
      "type": "SCALAR"
    },
    {
      "bufferView": 2,
      "byteOffset": 775272,
      "componentType": 5126,
      "count": 31744,
      "max": [
        0.9872310161590576,
        0.9872310161590576,
        0.9975767135620117
      ],
      "min": [
        -0.9872305393218994,
        -0.9872307181358337,
        -0.9975767135620117
      ],
      "type": "VEC3"
    },
    {
      "bufferView": 2,
      "byteOffset": 1156200,
      "componentType": 5126,
      "count": 31744,
      "max": [
        0.9993996024131775,
        0.999399721622467,
        0.9969544410705566
      ],
      "min": [
        -0.9993996024131775,
        -0.999399721622467,
        -0.9969545602798462
      ],
      "type": "VEC3"
    },
    {
      "bufferView": 1,
      "byteOffset": 258424,
      "componentType": 5126,
      "count": 31744,
      "max": [
        1.0000001192092896,
        1.0000001192092896
      ],
      "min": [
        0.0,
        0.0
      ],
      "type": "VEC2"
    },
    {
      "bufferView": 0,
      "byteOffset": 199392,
      "componentType": 5125,
      "count": 47616,
      "type": "SCALAR"
    },
    {
      "bufferView": 2,
      "byteOffset": 1537128,
      "componentType": 5126,
      "count": 31744,
      "max": [
        0.9872310161590576,
        0.9872310161590576,
        0.9975767135620117
      ],
      "min": [
        -0.9872305393218994,
        -0.9872307181358337,
        -0.9975767135620117
      ],
      "type": "VEC3"
    },
    {
      "bufferView": 2,
      "byteOffset": 1918056,
      "componentType": 5126,
      "count": 31744,
      "max": [
        0.9993996024131775,
        0.999399721622467,
        0.9969544410705566
      ],
      "min": [
        -0.9993996024131775,
        -0.999399721622467,
        -0.9969545602798462
      ],
      "type": "VEC3"
    },
    {
      "bufferView": 1,
      "byteOffset": 512376,
      "componentType": 5126,
      "count": 31744,
      "max": [
        1.0000001192092896,
        1.0000001192092896
      ],
      "min": [
        0.0,
        0.0
      ],
      "type": "VEC2"
    },
    {
      "bufferView": 0,
      "byteOffset": 389856,
      "componentType": 5125,
      "count": 47616,
      "type": "SCALAR"
    },
    {
      "bufferView": 2,
      "byteOffset": 2298984,
      "componentType": 5126,
      "count": 31744,
      "max": [
        0.9872310161590576,
        0.9872310161590576,
        0.9975767135620117
      ],
      "min": [
        -0.9872305393218994,
        -0.9872307181358337,
        -0.9975767135620117
      ],
      "type": "VEC3"
    },
    {
      "bufferView": 2,
      "byteOffset": 2679912,
      "componentType": 5126,
      "count": 31744,
      "max": [
        0.9993996024131775,
        0.999399721622467,
        0.9969544410705566
      ],
      "min": [
        -0.9993996024131775,
        -0.999399721622467,
        -0.9969545602798462
      ],
      "type": "VEC3"
    },
    {
      "bufferView": 1,
      "byteOffset": 766328,
      "componentType": 5126,
      "count": 31744,
      "max": [
        1.0000001192092896,
        1.0000001192092896
      ],
      "min": [
        0.0,
        0.0
      ],
      "type": "VEC2"
    },
    {
      "bufferView": 0,
      "byteOffset": 580320,
      "componentType": 5125,
      "count": 47616,
      "type": "SCALAR"
    },
    {
      "bufferView": 2,
      "byteOffset": 3060840,
      "componentType": 5126,
      "count": 82,
      "max": [
        1.0,
        1.0,
        1.000000238418579
      ],
      "min": [
        -1.0,
        -1.0,
        -1.0
      ],
      "type": "VEC3"
    },
    {
      "bufferView": 2,
      "byteOffset": 3061824,
      "componentType": 5126,
      "count": 82,
      "max": [
        0.7946440577507019,
        0.7946439981460571,
        0.7358989119529724
      ],
      "min": [
        -0.7946441173553467,
        -0.7946441769599915,
        -0.6070757508277893
      ],
      "type": "VEC3"
    },
    {
      "bufferView": 1,
      "byteOffset": 1020280,
      "componentType": 5126,
      "count": 82,
      "max": [
        1.0,
        1.0
      ],
      "min": [
        -1.564621925354004e-07,
        0.01000000536441803
      ],
      "type": "VEC2"
    },
    {
      "bufferView": 0,
      "byteOffset": 770784,
      "componentType": 5125,
      "count": 228,
      "type": "SCALAR"
    }
  ],
  "asset": {
    "extras": {
      "author": "samsikua (https://sketchfab.com/samsikua)",
      "license": "CC-BY-4.0 (http://creativecommons.org/licenses/by/4.0/)",
      "source": "https://sketchfab.com/3d-models/cartoon-tree-ebd34b4c54f74b5a934ca70b961a3cf8",
      "title": "Cartoon Tree"
    },
    "generator": "Sketchfab-15.1.0",
    "version": "2.0"
  },
  "bufferViews": [
    {
      "buffer": 0,
      "byteLength": 771696,
      "name": "floatBufferViews",
      "target": 34963
    },
    {
      "buffer": 0,
      "byteLength": 1020936,
      "byteOffset": 771696,
      "byteStride": 8,
      "name": "floatBufferViews",
      "target": 34962
    },
    {
      "buffer": 0,
      "byteLength": 3062808,
      "byteOffset": 1792632,
      "byteStride": 12,
      "name": "floatBufferViews",
      "target": 34962
    }
  ],
  "buffers": [
    {
      "byteLength": 4855440,
      "uri": "scene.bin"
    }
  ],
  "materials": [
    {
      "doubleSided": true,
      "name": "Material.008",
      "pbrMetallicRoughness": {
        "baseColorFactor": [
          0.26651984652910465,
          0.1074197295221753,
          0.01339691692888067,
          1.0
        ],
        "metallicFactor": 0.0,
        "roughnessFactor": 0.8211145618000169
      }
    },
    {
      "doubleSided": true,
      "name": "Material.004",
      "pbrMetallicRoughness": {
        "baseColorFactor": [
          0.26635560480286247,
          0.10702310297826759,
          0.013702083047289686,
          1.0
        ],
        "metallicFactor": 0.0,
        "roughnessFactor": 0.8211145618000169
      }
    },
    {
      "doubleSided": true,
      "name": "Material.006",
      "pbrMetallicRoughness": {
        "baseColorFactor": [
          0.26635560480286247,
          0.10702310297826759,
          0.013702083047289686,
          1.0
        ],
        "metallicFactor": 0.0,
        "roughnessFactor": 0.8211145618000169
      }
    },
    {
      "doubleSided": true,
      "name": "Material.005",
      "pbrMetallicRoughness": {
        "baseColorFactor": [
          0.26635560480286247,
          0.10702310297826759,
          0.013702083047289686,
          1.0
        ],
        "metallicFactor": 0.0,
        "roughnessFactor": 0.8211145618000169
      }
    },
    {
      "doubleSided": true,
      "name": "Material.001",
      "pbrMetallicRoughness": {
        "baseColorFactor": [
          0.00030352698354883784,
          0.29177064981753587,
          0.01680737575288738,
          1.0
        ],
        "metallicFactor": 0.0,
        "roughnessFactor": 0.8211145618000169
      }
    },
    {
      "doubleSided": true,
      "name": "Material.002",
      "pbrMetallicRoughness": {
        "baseColorFactor": [
          0.000393997944421802,
          0.290387141204943,
          0.016601676257753925,
          1.0
        ],
        "metallicFactor": 0.0,
        "roughnessFactor": 0.8211145618000169
      }
    },
    {
      "doubleSided": true,
      "name": "list",
      "pbrMetallicRoughness": {
        "baseColorFactor": [
          0.00030352698354883784,
          0.29177064981753587,
          0.01680737575288738,
          1.0
        ],
        "metallicFactor": 0.0,
        "roughnessFactor": 0.8211145618000169
      }
    },
    {
      "doubleSided": true,
      "name": "Material.003",
      "pbrMetallicRoughness": {
        "baseColorFactor": [
          0.00030352698354883784,
          0.29177064981753587,
          0.01680737575288738,
          1.0
        ],
        "metallicFactor": 0.0,
        "roughnessFactor": 0.8211145618000169
      }
    },
    {
      "doubleSided": true,
      "name": "Material.007",
      "pbrMetallicRoughness": {
        "baseColorFactor": [
          0.26635560480286247,
          0.10702310297826759,
          0.013702083047289686,
          1.0
        ],
        "metallicFactor": 0.0,
        "roughnessFactor": 0.8211145618000169
      }
    }
  ],
  "meshes": [
    {
      "name": "Cylinder_Material.008_0",
      "primitives": [
        {
          "attributes": {
            "NORMAL": 1,
            "POSITION": 0,
            "TEXCOORD_0": 2
          },
          "indices": 3,
          "material": 0,
          "mode": 4
        }
      ]
    },
    {
      "name": "Cylinder.001_Material.004_0",
      "primitives": [
        {
          "attributes": {
            "NORMAL": 5,
            "POSITION": 4,
            "TEXCOORD_0": 6
          },
          "indices": 7,
          "material": 1,
          "mode": 4
        }
      ]
    },
    {
      "name": "Cylinder.002_Material.006_0",
      "primitives": [
        {
          "attributes": {
            "NORMAL": 9,
            "POSITION": 8,
            "TEXCOORD_0": 10
          },
          "indices": 11,
          "material": 2,
          "mode": 4
        }
      ]
    },
    {
      "name": "Cylinder.003_Material.005_0",
      "primitives": [
        {
          "attributes": {
            "NORMAL": 13,
            "POSITION": 12,
            "TEXCOORD_0": 14
          },
          "indices": 15,
          "material": 3,
          "mode": 4
        }
      ]
    },
    {
      "name": "Sphere_Material.001_0",
      "primitives": [
        {
          "attributes": {
            "NORMAL": 17,
            "POSITION": 16,
            "TEXCOORD_0": 18
          },
          "indices": 19,
          "material": 4,
          "mode": 4
        }
      ]
    },
    {
      "name": "Sphere.001_Material.002_0",
      "primitives": [
        {
          "attributes": {
            "NORMAL": 21,
            "POSITION": 20,
            "TEXCOORD_0": 22
          },
          "indices": 23,
          "material": 5,
          "mode": 4
        }
      ]
    },
    {
      "name": "Sphere.002_list_0",
      "primitives": [
        {
          "attributes": {
            "NORMAL": 25,
            "POSITION": 24,
            "TEXCOORD_0": 26
          },
          "indices": 27,
          "material": 6,
          "mode": 4
        }
      ]
    },
    {
      "name": "Sphere.003_Material.003_0",
      "primitives": [
        {
          "attributes": {
            "NORMAL": 29,
            "POSITION": 28,
            "TEXCOORD_0": 30
          },
          "indices": 31,
          "material": 7,
          "mode": 4
        }
      ]
    },
    {
      "name": "Cylinder.004_Material.007_0",
      "primitives": [
        {
          "attributes": {
            "NORMAL": 33,
            "POSITION": 32,
            "TEXCOORD_0": 34
          },
          "indices": 35,
          "material": 8,
          "mode": 4
        }
      ]
    }
  ],
  "nodes": [
    {
      "children": [
        1
      ],
      "matrix": [
        1.0,
        0.0,
        0.0,
        0.0,
        0.0,
        2.220446049250313e-16,
        -1.0,
        0.0,
        0.0,
        1.0,
        2.220446049250313e-16,
        0.0,
        0.0,
        0.0,
        0.0,
        1.0
      ],
      "name": "Sketchfab_model"
    },
    {
      "children": [
        2
      ],
      "matrix": [
        0.009999999776482582,
        0.0,
        0.0,
        0.0,
        0.0,
        0.0,
        0.009999999776482582,
        0.0,
        0.0,
        -0.009999999776482582,
        0.0,
        0.0,
        0.0,
        0.0,
        0.0,
        1.0
      ],
      "name": "63b8a25e7cf640a3b652d191c0225617.fbx"
    },
    {
      "children": [
        3
      ],
      "name": "RootNode"
    },
    {
      "children": [
        4,
        5,
        7,
        9,
        11,
        13,
        15,
        17,
        19
      ],
      "matrix": [
        83.61492156982422,
        0.0,
        0.0,
        0.0,
        0.0,
        -1.362259982945046e-05,
        -83.61492156982311,
        0.0,
        0.0,
        83.61492156982311,
        -1.362259982945046e-05,
        0.0,
        0.0,
        84.04830932617188,
        0.0,
        1.0
      ],
      "name": "Cylinder"
    },
    {
      "mesh": 0,
      "name": "Cylinder_Material.008_0"
    },
    {
      "children": [
        6
      ],
      "matrix": [
        0.20479177190164521,
        -1.3234889800848438e-23,
        -0.41364855467416345,
        0.0,
        5.656179917870842e-23,
        0.4615677297115326,
        1.323488980084845e-23,
        0.0,
        0.41364855467416345,
        -5.65618030307232e-23,
        0.20479177190164521,
        0.0,
        0.37717410922050476,
        5.293955920339377e-23,
        5.796575546264648,
        1.0
      ],
      "name": "Cylinder.001"
    },
    {
      "mesh": 1,
      "name": "Cylinder.001_Material.004_0"
    },
    {
      "children": [
        8
      ],
      "matrix": [
        -0.13566555660098648,
        0.11694696420677751,
        -0.36178270832524345,
        0.0,
        -0.26357956169903174,
        -0.3057682623470205,
        -5.7651245334199255e-09,
        0.0,
        -0.274023930742165,
        0.23621518457491547,
        0.1791137506866425,
        0.0,
        -0.6117426753044128,
        0.555672287940979,
        3.043806552886963,
        1.0
      ],
      "name": "Cylinder.002"
    },
    {
      "mesh": 2,
      "name": "Cylinder.002_Material.006_0"
    },
    {
      "children": [
        10
      ],
      "matrix": [
        -0.13271730567905385,
        -0.12028238631790338,
        -0.3617827083252436,
        0.0,
        0.271097099604321,
        -0.29912342989861196,
        9.162708712719874e-09,
        0.0,
        -0.2680689148103571,
        -0.24295222772295355,
        0.17911375068664223,
        0.0,
        -0.44955337047576904,
        -0.3589898645877838,
        7.130746841430664,
        1.0
      ],
      "name": "Cylinder.003"
    },
    {
      "mesh": 3,
      "name": "Cylinder.003_Material.005_0"
    },
    {
      "children": [
        12
      ],
      "matrix": [
        1.28887885708087,
        1.098412676512672,
        0.0,
        0.0,
        -0.5916811204550314,
        0.6942793929778646,
        -2.6469779601696883e-23,
        0.0,
        -4.4370268407187445e-23,
        5.206413040915722e-23,
        2.3574092388153076,
        0.0,
        2.111823081970215,
        0.013781899586319923,
        8.439859390258789,
        1.0
      ],
      "name": "Sphere"
    },
    {
      "mesh": 4,
      "name": "Sphere_Material.001_0"
    },
    {
      "children": [
        14
      ],
      "matrix": [
        1.1208950301063543,
        -1.2693750603704776,
        2.646977960169688e-23,
        0.0,
        0.6837733011036128,
        0.6037916758052296,
        1.3234889800848443e-23,
        0.0,
        -7.645396164246551e-23,
        7.613163685446227e-24,
        3.602630138397217,
        0.0,
        -1.5747090578079224,
        -1.2425670623779297,
        10.00447940826416,
        1.0
      ],
      "name": "Sphere.001"
    },
    {
      "mesh": 5,
      "name": "Sphere.001_Material.002_0"
    },
    {
      "children": [
        16
      ],
      "matrix": [
        0.27180962364486194,
        -0.5676487638969564,
        -3.74589279818776,
        0.0,
        0.8157184946969366,
        -0.8869292291838656,
        0.1935945465403788,
        0.0,
        -1.1585055355084208,
        -1.0491366760715917,
        0.07492157380204294,
        0.0,
        0.17419315874576569,
        1.4536693096160889,
        11.266376495361328,
        1.0
      ],
      "name": "Sphere.002"
    },
    {
      "mesh": 6,
      "name": "Sphere.002_list_0"
    },
    {
      "children": [
        18
      ],
      "matrix": [
        0.20135153839660203,
        -0.4205036979445551,
        -2.774886029493518,
        0.0,
        0.8022248514260787,
        -0.8722559167442252,
        0.19039198039280242,
        0.0,
        -1.1566920365764362,
        -1.0474963537686828,
        0.07480464679311201,
        0.0,
        -1.6125402450561523,
        1.4536693096160889,
        5.717486381530762,
        1.0
      ],
      "name": "Sphere.003"
    },
    {
      "mesh": 7,
      "name": "Sphere.003_Material.003_0"
    },
    {
      "children": [
        20
      ],
      "matrix": [
        0.4164232813527813,
        0.10450651072649214,
        -0.30798518292759924,
        0.0,
        0.19962547502190453,
        0.3128861533912782,
        0.3760808698482556,
        0.0,
        0.2567609630528193,
        -0.41275365065852687,
        0.2071067131590087,
        0.0,
        0.29272934794425964,
        -0.5581234693527222,
        3.8065547943115234,
        1.0
      ],
      "name": "Cylinder.004"
    },
    {
      "mesh": 8,
      "name": "Cylinder.004_Material.007_0"
    }
  ],
  "scene": 0,
  "scenes": [
    {
      "name": "Sketchfab_Scene",
      "nodes": [
        0
      ]
    }
  ]
}
