{
  "accessors": [
    {
      "bufferView": 2,
      "componentType": 5126,
      "count": 8268,
      "max": [
        1.3494889736175537,
        1.153141975402832,
        4.168506145477295
      ],
      "min": [
        -1.335649013519287,
        -1.5243879556655884,
        0.04291599988937378
      ],
      "type": "VEC3"
    },
    {
      "bufferView": 2,
      "byteOffset": 99216,
      "componentType": 5126,
      "count": 8268,
      "max": [
        0.9993661046028137,
        0.9999269843101501,
        0.9999979734420776
      ],
      "min": [
        -0.9995063543319702,
        -0.9999940991401672,
        -1.0
      ],
      "type": "VEC3"
    },
    {
      "bufferView": 3,
      "componentType": 5126,
      "count": 8268,
      "max": [
        1.0,
        1.0,
        0.9999996423721313,
        1.0
      ],
      "min": [
        -0.9937634468078613,
        -1.0,
        -0.9999996423721313,
        -1.0
      ],
      "type": "VEC4"
    },
    {
      "bufferView": 1,
      "componentType": 5126,
      "count": 8268,
      "max": [
        0.998354971408844,
        0.9409099817276001
      ],
      "min": [
        0.0,
        0.0
      ],
      "type": "VEC2"
    },
    {
      "bufferView": 0,
      "componentType": 5125,
      "count": 40716,
      "type": "SCALAR"
    },
    {
      "bufferView": 2,
      "byteOffset": 198432,
      "componentType": 5126,
      "count": 572,
      "max": [
        0.7932959794998169,
        -1.1072089672088623,
        2.5468130111694336
      ],
      "min": [
        -0.6795910000801086,
        -1.9530030488967896,
        2.009632110595703
      ],
      "type": "VEC3"
    },
    {
      "bufferView": 2,
      "byteOffset": 205296,
      "componentType": 5126,
      "count": 572,
      "max": [
        0.9646183848381042,
        1.0,
        0.9999949932098389
      ],
      "min": [
        -0.9632401466369629,
        -1.0,
        -0.9999879002571106
      ],
      "type": "VEC3"
    },
    {
      "bufferView": 1,
      "byteOffset": 66144,
      "componentType": 5126,
      "count": 572,
      "max": [
        1.0,
        0.9644349813461304
      ],
      "min": [
        0.0,
        0.00011899999663000926
      ],
      "type": "VEC2"
    },
    {
      "bufferView": 0,
      "byteOffset": 162864,
      "componentType": 5125,
      "count": 2196,
      "type": "SCALAR"
    },
    {
      "bufferView": 2,
      "byteOffset": 212160,
      "componentType": 5126,
      "count": 1531,
      "max": [
        0.6328709721565247,
        0.4063810110092163,
        1.6971670389175415
      ],
      "min": [
        -0.6312990188598633,
        -0.8161759972572327,
        0.5149520039558411
      ],
      "type": "VEC3"
    },
    {
      "bufferView": 2,
      "byteOffset": 230532,
      "componentType": 5126,
      "count": 1531,
      "max": [
        0.9994536638259888,
        0.9999954700469971,
        0.9996722340583801
      ],
      "min": [
        -0.9815726280212402,
        -0.9998890161514282,
        -0.9957910180091858
      ],
      "type": "VEC3"
    },
    {
      "bufferView": 3,
      "byteOffset": 132288,
      "componentType": 5126,
      "count": 1531,
      "max": [
        1.0,
        0.9996741414070129,
        0.9999921917915344,
        1.0
      ],
      "min": [
        -0.7600871920585632,
        -0.9999998807907104,
        -1.0,
        1.0
      ],
      "type": "VEC4"
    },
    {
      "bufferView": 1,
      "byteOffset": 70720,
      "componentType": 5126,
      "count": 1531,
      "max": [
        0.9579880237579346,
        0.9980080127716064
      ],
      "min": [
        0.0019120000069960952,
        0.0019920000340789557
      ],
      "type": "VEC2"
    },
    {
      "bufferView": 0,
      "byteOffset": 171648,
      "componentType": 5125,
      "count": 3336,
      "type": "SCALAR"
    },
    {
      "bufferView": 2,
      "byteOffset": 248904,
      "componentType": 5126,
      "count": 276,
      "max": [
        0.8798559904098511,
        -1.1371970176696777,
        3.282881021499634
      ],
      "min": [
        -0.8649129867553711,
        -1.3550009727478027,
        2.5823910236358643
      ],
      "type": "VEC3"
    },
    {
      "bufferView": 2,
      "byteOffset": 252216,
      "componentType": 5126,
      "count": 276,
      "max": [
        0.8999112844467163,
        0.9838925004005432,
        0.9408345222473145
      ],
      "min": [
        -0.9073879718780518,
        -0.9903082251548767,
        -0.940833330154419
      ],
      "type": "VEC3"
    },
    {
      "bufferView": 3,
      "byteOffset": 156784,
      "componentType": 5126,
      "count": 276,
      "max": [
        0.999921441078186,
        0.9186128973960876,
        0.7873510122299194,
        1.0
      ],
      "min": [
        -0.8730306625366211,
        -0.916585385799408,
        -0.753866970539093,
        1.0
      ],
      "type": "VEC4"
    },
    {
      "bufferView": 1,
      "byteOffset": 82968,
      "componentType": 5126,
      "count": 276,
      "max": [
        0.9995229840278625,
        0.43378201127052307
      ],
      "min": [
        0.44734200835227966,
        0.00017699999443721026
      ],
      "type": "VEC2"
    },
    {
      "bufferView": 0,
      "byteOffset": 184992,
      "componentType": 5125,
      "count": 1152,
      "type": "SCALAR"
    }
  ],
  "asset": {
    "extras": {
      "author": "glcalde (https://sketchfab.com/glcalde)",
      "license": "CC-BY-4.0 (http://creativecommons.org/licenses/by/4.0/)",
      "source": "https://sketchfab.com/3d-models/animal-crossing-villager-oc-8bae3f0ef2d34f388f677c479246e2fe",
      "title": "Animal Crossing Villager (OC)"
    },
    "generator": "Sketchfab-12.68.0",
    "version": "2.0"
  },
  "bufferViews": [
    {
      "buffer": 0,
      "byteLength": 189600,
      "name": "floatBufferViews",
      "target": 34963
    },
    {
      "buffer": 0,
      "byteLength": 85176,
      "byteOffset": 189600,
      "byteStride": 8,
      "name": "floatBufferViews",
      "target": 34962
    },
    {
      "buffer": 0,
      "byteLength": 255528,
      "byteOffset": 274776,
      "byteStride": 12,
      "name": "floatBufferViews",
      "target": 34962
    },
    {
      "buffer": 0,
      "byteLength": 161200,
      "byteOffset": 530304,
      "byteStride": 16,
      "name": "floatBufferViews",
      "target": 34962
    }
  ],
  "buffers": [
    {
      "byteLength": 691504,
      "uri": "scene.bin"
    }
  ],
  "images": [
    {
      "uri": "textures/initialShadingGroup_baseColor.jpeg"
    },
    {
      "uri": "textures/initialShadingGroup_lambert2SG_metallicRoughness.png"
    },
    {
      "uri": "textures/initialShadingGroup_lambert2SG_normal.png"
    },
    {
      "uri": "textures/lambert4SG_baseColor.jpeg"
    },
    {
      "uri": "textures/lambert4SG_metallicRoughness.png"
    },
    {
      "uri": "textures/lambert4SG_normal.png"
    },
    {
      "uri": "textures/lambert5SG_baseColor.jpeg"
    },
    {
      "uri": "textures/lambert5SG_metallicRoughness.png"
    },
    {
      "uri": "textures/lambert5SG_normal.png"
    }
  ],
  "materials": [
    {
      "doubleSided": true,
      "name": "initialShadingGroup",
      "pbrMetallicRoughness": {
        "baseColorTexture": {
          "index": 0
        },
        "metallicFactor": 0.0
      }
    },
    {
      "doubleSided": true,
      "name": "initialShadingGroup_lambert2SG",
      "normalTexture": {
        "index": 2
      },
      "occlusionTexture": {
        "index": 1
      },
      "pbrMetallicRoughness": {
        "baseColorTexture": {
          "index": 0
        },
        "metallicRoughnessTexture": {
          "index": 1
        }
      }
    },
    {
      "doubleSided": true,
      "name": "lambert4SG",
      "normalTexture": {
        "index": 5
      },
      "pbrMetallicRoughness": {
        "baseColorTexture": {
          "index": 3
        },
        "metallicRoughnessTexture": {
          "index": 4
        }
      }
    },
    {
      "doubleSided": true,
      "name": "lambert5SG",
      "normalTexture": {
        "index": 8
      },
      "pbrMetallicRoughness": {
        "baseColorTexture": {
          "index": 6
        },
        "metallicRoughnessTexture": {
          "index": 7
        }
      }
    }
  ],
  "meshes": [
    {
      "name": "Object_0",
      "primitives": [
        {
          "attributes": {
            "NORMAL": 1,
            "POSITION": 0,
            "TANGENT": 2,
            "TEXCOORD_0": 3
          },
          "indices": 4,
          "material": 1,
          "mode": 4
        }
      ]
    },
    {
      "name": "Object_1",
      "primitives": [
        {
          "attributes": {
            "NORMAL": 6,
            "POSITION": 5,
            "TEXCOORD_0": 7
          },
          "indices": 8,
          "material": 0,
          "mode": 4
        }
      ]
    },
    {
      "name": "Object_2",
      "primitives": [
        {
          "attributes": {
            "NORMAL": 10,
            "POSITION": 9,
            "TANGENT": 11,
            "TEXCOORD_0": 12
          },
          "indices": 13,
          "material": 2,
          "mode": 4
        }
      ]
    },
    {
      "name": "Object_3",
      "primitives": [
        {
          "attributes": {
            "NORMAL": 15,
            "POSITION": 14,
            "TANGENT": 16,
            "TEXCOORD_0": 17
          },
          "indices": 18,
          "material": 3,
          "mode": 4
        }
      ]
    }
  ],
  "nodes": [
    {
      "children": [
        1
      ],
      "matrix": [
        1.0,
        0.0,
        0.0,
        0.0,
        0.0,
        2.220446049250313e-16,
        -1.0,
        0.0,
        0.0,
        1.0,
        2.220446049250313e-16,
        0.0,
        0.0,
        0.0,
        0.0,
        1.0
      ],
      "name": "Sketchfab_model"
    },
    {
      "children": [
        2,
        3,
        4,
        5
      ],
      "name": "patofinal.obj.cleaner.materialmerger.gles"
    },
    {
      "mesh": 0,
      "name": "Object_2"
    },
    {
      "mesh": 1,
      "name": "Object_3"
    },
    {
      "mesh": 2,
      "name": "Object_4"
    },
    {
      "mesh": 3,
      "name": "Object_5"
    }
  ],
  "samplers": [
    {
      "magFilter": 9729,
      "minFilter": 9987,
      "wrapS": 10497,
      "wrapT": 10497
    }
  ],
  "scene": 0,
  "scenes": [
    {
      "name": "Sketchfab_Scene",
      "nodes": [
        0
      ]
    }
  ],
  "textures": [
    {
      "sampler": 0,
      "source": 0
    },
    {
      "sampler": 0,
      "source": 1
    },
    {
      "sampler": 0,
      "source": 2
    },
    {
      "sampler": 0,
      "source": 3
    },
    {
      "sampler": 0,
      "source": 4
    },
    {
      "sampler": 0,
      "source": 5
    },
    {
      "sampler": 0,
      "source": 6
    },
    {
      "sampler": 0,
      "source": 7
    },
    {
      "sampler": 0,
      "source": 8
    }
  ]
}
